<svg xmlns="http://www.w3.org/2000/svg" viewBox="0 0 448.74 492.16"><defs><style>.cls-1{fill:#692c90;}</style></defs><g id="Layer_2" data-name="Layer 2"><g id="Layer_3" data-name="Layer 3"><path class="cls-1" d="M49.4,388.9V343.64h2.77V322H39.36L0,343v3.59l1-.46v47.56ZM35.67,329.72,39.36,328v58.72l-3.69.58Zm-6.24,2.95,3.5-1.66V387.7l-3.5.56Zm-6.36,3L27,333.82v54.82l-3.94.63Zm-6.45,3.05,4.24-2v52.82h.49l-4.73.75ZM10,341.88l4.46-2.1v50.65h1.32l-5.78.92Zm-6.75,3.2,4.54-2.15V391.7l-4.54.72Z"/><polygon class="cls-1" points="6.27 338.76 35.12 323 35.12 306.31 4.98 328.99 4.98 334.33 6.36 334.33 6.27 338.76"/><rect class="cls-1" x="36.5" y="306.31" width="15.67" height="13.87"/><polygon class="cls-1" points="191.34 351.2 190.79 337.19 101.02 353.04 101.02 363.92 112.63 362.28 112.63 355.26 134.2 351.94 134.2 359.25 143.78 357.9 143.78 350.07 168.67 346.24 168.67 354.39 191.34 351.2"/><path class="cls-1" d="M380.47,298c0-18-12.54-32.57-28-32.57-14.78,0-26.89,13.32-27.93,30.2,4.53-10.89,14.12-18.4,25.23-18.4,15.47,0,28,14.58,28,32.57,0,.79,0,1.58-.08,2.37A36.94,36.94,0,0,0,380.47,298Z"/><path class="cls-1" d="M448.68,394V363.74H418.45V330.19H399.54a76.16,76.16,0,0,0,6.74-31.53c0-36.76-25.44-66.83-57.65-69.31,2.76-3,4.93-7.91,4.93-15.67,0-21.19-14.87-24.7-14.87-24.7a37.45,37.45,0,0,0-15.05,2.84v-2a40.11,40.11,0,0,0-9.65-5.4V136c4.05,0,7.25-7.25,7.25-7.25V113s-5.9-9.83-25.81-9.83-27.53,7.61-27.53,7.61V128c0,4.42,5.9,8.6,5.9,8.6V185c-4.72,2.67-5.71,5.54-5.71,5.54V234.8a25,25,0,0,0-18.87-8.58,33,33,0,0,0-6.14.59v-7.35s-12.29-10.32-32.44-9.09-23.11,9.83-23.11,9.83v64.08l-19.81,7.78-5,2v-1.81s-20.32-2.92-33.93-3.89c-20.77-1.48-51.85,1.43-51.85,1.43V362h4.42c0-11.82,2.46-13.73,2.46-13.73l14.26-1.66c0-19.11,9.83-29.31,9.83-29.31l23.5-9L304,246a64,64,0,0,0-5.66,6.18L111.46,320.19l-2.7,4.42,181.3-59.42a75.83,75.83,0,0,0-7.66,33.47c0,1.3,0,2.58.1,3.86L100.65,343.58v6.88L284.88,318.1a73.64,73.64,0,0,0,4.27,12.09H237.43l-9,1.48v67.46a24.48,24.48,0,0,0,13,16.22h-4.34s-3.32-1.52-7.69-3.71c-2.46-1.24-5.25-2.69-8-4.21-1.83-1-3.63-2.07-5.27-3.11a49.7,49.7,0,0,1-4.72-3.3,9.93,9.93,0,0,1-2.74-3,16,16,0,0,1-.82-3c-.27-1.29-.56-2.9-.85-4.76-.36-2.25-.72-4.87-1.1-7.7q-.26-2-.51-4c-2.25-18.16-4.46-42.18-4.46-42.18l-7.23,1.08s2.67,25.62,5.86,44.78c-4.9,5-8.68,14.21-10.35,25.46-.18-1.07-.37-2.11-.59-3.1.84-4.49,3.19-15.27,7.21-20.75l-.94-6.13-116,3.24v7.7H91.8l3.07,18.23h1.21s2.29-17.5,10.86-19.69h0c-6.18,2.83-10.82,14.59-10.87,28.72H85.9v-24H77.05v-8.3l-2.76.19v9.95h3.13v30.05H96.56c1.57,12.63,6.91,21.94,13.26,21.94h6.4s6-4.3,8.12-19c1.81,13.62,7.62,23.59,14.52,23.59h7s6.2-4.43,8.68-19.31c2.1,15.42,8.71,26.68,16.54,26.68h8s7.52-5.36,10.16-23.65c2.62,16.82,10,28.94,18.67,28.94h9.16s12.65-9,12.65-42.43c0-.19,0-.37,0-.56,3.25,1.47,5.45,2.31,5.45,2.31h53.84l-1.24,14-53-2.06-1.36,7.61,12.7,1.3c2.1,3.77,7.07,10.87,14.83,10.87,6.8,0,11.61-4.62,14.17-7.92l11.65,1.18-1.73,19.54,128.67,25.3,21.68-35.42-20.87-44.1h24.32C450.15,412.64,448.68,394,448.68,394ZM102,320.19H85.53v-23.8H102ZM126.58,305l-20.83,6.64V296.39h20.83Zm17.48-6.05-11.71,4.15v-6.7h11.71Zm2.76-.37v-2.18h7Zm94.78-78.13v1.89c-20.62-8.28-46-2.38-46-2.38C220,204,241.6,220.44,241.6,220.44Zm0,3.39v3.29a33.47,33.47,0,0,0-14.31,7.21v21.79L224,257.47V219.75A68.57,68.57,0,0,1,241.6,223.83ZM207,276.64l-3.88,1.52-.17-57.1c1.36-.34,2.71-.61,4-.83Zm13.46-5.28L213.65,274V219.5a64.69,64.69,0,0,1,6.82,0Zm47.37-18.59L224,270v-7.13l43.87-16.1Zm0-13.2-21.75,8.88V229.72s11.25-3.32,21.75,7.19Zm-88.7,145.7h0ZM108.7,442.71c-5.06,0-9.33-8-10.72-18.88h1.1c1.33,8.05,4.68,13.77,8.62,13.77,5.1,0,9.24-9.6,9.24-21.45s-4.14-21.45-9.24-21.45-9.18,9.47-9.24,21.2h-.95c0-14.55,5-26.31,11.19-26.31s11.2,11.89,11.2,26.56S114.88,442.71,108.7,442.71Zm-9.26-25.16c0-.47,0-.93,0-1.4,0-10.62,3.37-19.23,7.53-19.23s7.53,8.61,7.53,19.23-3.37,19.23-7.53,19.23c-3.09,0-5.74-4.75-6.9-11.55h.42Zm24.72-12.3c1-5.28,4.19-17.33,12.55-19.64-5.73,1.75-10.42,10.45-12.19,22Q124.35,406.39,124.16,405.25ZM137.62,447c-6.79,0-12.3-13.06-12.3-29.18s5.51-29.18,12.3-29.18,12.31,13.06,12.31,29.18S144.42,447,137.62,447Zm16.74-42.48c1.07-4.88,4.16-15.28,11.56-19.35-5.09,3.47-9.17,11.89-11,22.65C154.76,406.67,154.57,405.57,154.36,404.52ZM169.7,453.9c-7.76,0-14-14.91-14-33.3s6.28-33.3,14-33.3,14,14.91,14,33.3S177.45,453.9,169.7,453.9Zm34-53.3c1.55,3.83,5.59,7.53,10.29,10.76a67.64,67.64,0,0,1,.63,9.24c0,15.21-4.82,27.55-10.78,27.55S193,435.81,193,420.6c0-13.36,3.73-24.49,8.67-27A50,50,0,0,0,203.69,400.6Zm2.66,58c-8.86,0-16-17-16-38,0-15.77,4-29.31,9.81-35.07.35,2,.71,3.86,1.06,5.6-5.49,3.74-9.5,15.51-9.5,29.47,0,17,5.92,30.73,13.23,30.73s13.24-13.76,13.24-30.73c0-2.33-.12-4.59-.33-6.77,1.49.9,3,1.74,4.46,2.53.07,1.39.1,2.81.1,4.24C222.38,441.61,215.2,458.64,206.35,458.64ZM411.44,339.4v24.34H366.11a63.54,63.54,0,0,0,28.4-24.34Zm-58.9-7.73c-16.7,0-30.24-15.19-30.24-33.93s13.54-33.92,30.24-33.92,30.23,15.18,30.23,33.92S369.24,331.67,352.54,331.67ZM334.88,192c4,1.17,16.84,6.12,16.84,21.65,0,7.58-2.43,12.44-5.29,15.55h-.09c2.27-4.81,10.25-25-9.65-36.19l-1.95-.85Zm-4.76,6.56c4.11.66,12.38,3.43,12.38,15.09,0,8.3-3.31,12.84-6.85,15.29a15.59,15.59,0,0,1-6.7-6,5.74,5.74,0,0,0,.71.09c3.32,0,6-3.39,6-7.56s-2.7-7.56-6-7.56a5,5,0,0,0-2.67.81A30.53,30.53,0,0,1,330.12,198.59ZM312,135.28v48.34c-.69-.25-1.4-.49-2.15-.72h0V127.1a80.46,80.46,0,0,1,9.24,1.67A16.23,16.23,0,0,1,312,135.28ZM292.54,107c8.25-.46,18.11.71,26.73,6.52v12.9a106.74,106.74,0,0,0-26.73-2.33Zm7.56,19.39v54.51a53.05,53.05,0,0,0-7.13-.27V126.55S295.76,126.32,300.1,126.4Zm-25.31-15.82a61.44,61.44,0,0,1,13.51-3.19v17a88.66,88.66,0,0,0-13.51,2.08ZM287.57,245l-3.89,1.52-.17-55.17c1.36-.33,2.72-.61,4.06-.83ZM301,239.75l-6.82,2.68V189.82a64.69,64.69,0,0,1,6.82,0ZM276.2,190.27c24.33-16,46,.5,46,.5v1.73l-.17.09C301.4,184.41,276.2,190.27,276.2,190.27Zm44.14,3.22c-8.2,4.87-10.43,12-10.43,12v30.81l-5.38,2.12V190.07A71.33,71.33,0,0,1,320.34,193.49Zm25.48,42.71c17,0,32.1,8.75,42,22.45.81,6.31,3.5,32-3,51a43.12,43.12,0,0,0,1.42-11c0-21.41-15.47-38.77-34.55-38.77s-34.56,17.36-34.56,38.77c0,16.11,8.75,29.92,21.21,35.78a79.07,79.07,0,0,1-43.81-17.68A67.58,67.58,0,0,1,291.62,297C291.62,263.43,315.89,236.2,345.82,236.2ZM237.43,339.4h56.75a63.44,63.44,0,0,0,28.4,24.34H253.37l-15.94,1.81ZM429.68,457.46l-18.79,28.19L296.67,461.8l.37-47.56,5.21.09,1.41,45,9.22.88-.55-45.31,4.8,46.33,4.17.72,5.49.55-4.33-47.47,10.15,48.86,11.39,2-7.57-51.78L349,466.72l10.43,1.79-9.94-53.94,15.63,54.91,9.62,1.66L361,414.33l17.88,57.53,11.4,1.95L374,414.09,395,474.62l9.64,1.65-18.05-61.7L409.49,476l6.42-8.22-19-54.16,21.48,51,5.9-7.55-18.42-44.38,2.12,0Zm14.39-63.31c0,13.64-6.64,15.24-6.64,15.24H398.91l.12,0-108.86.32H279.09l-3.69,5.6H262.9c-11.6-1.22-25.47-5.15-25.47-17V369.9l15.94-1.74h190.7Z"/><path class="cls-1" d="M76.07,282.14,48.3,301.31v2.33L75.58,287.3s30.17-2.83,50.13-2.34c18.94.47,42,7.1,42,7.1V285S124.37,275,76.07,282.14Z"/><rect class="cls-1" x="260.28" y="376.27" width="178.44" height="14.01"/><path class="cls-1" d="M12,402.05c-2.59,0-4.69,4.88-4.69,10.9s2.1,10.9,4.69,10.9,4.7-4.88,4.7-10.9S14.55,402.05,12,402.05Zm-.38,20.68c-2.11,0-3.83-4.38-3.83-9.78s1.72-9.77,3.83-9.77,3.83,4.38,3.83,9.77S13.68,422.73,11.57,422.73Z"/><path class="cls-1" d="M11.57,412.88c0,2.07.54,3.75,1.21,3.75S14,415,14,412.88s-.55-3.75-1.22-3.75S11.57,410.81,11.57,412.88Z"/><path class="cls-1" d="M27,401.82c-2.85,0-5.16,5.37-5.16,12s2.31,12,5.16,12,5.16-5.36,5.16-12S29.89,401.82,27,401.82Zm-.42,22.72c-2.32,0-4.21-4.81-4.21-10.74s1.89-10.74,4.21-10.74,4.2,4.81,4.2,10.74S28.94,424.54,26.62,424.54Z"/><path class="cls-1" d="M26.62,413.72c0,2.27.6,4.12,1.33,4.12s1.34-1.85,1.34-4.12-.6-4.12-1.34-4.12S26.62,411.45,26.62,413.72Z"/><path class="cls-1" d="M43.26,401.55c-3.25,0-5.89,6.12-5.89,13.67s2.64,13.66,5.89,13.66,5.89-6.12,5.89-13.66S46.52,401.55,43.26,401.55Zm-.48,25.92c-2.65,0-4.8-5.49-4.8-12.25S40.13,403,42.78,403s4.8,5.49,4.8,12.26S45.43,427.47,42.78,427.47Z"/><path class="cls-1" d="M42.78,415.12c0,2.6.68,4.7,1.52,4.7s1.52-2.1,1.52-4.7-.68-4.7-1.52-4.7S42.78,412.53,42.78,415.12Z"/><path class="cls-1" d="M62,399.6c-3.72,0-6.73,7-6.73,15.62s3,15.61,6.73,15.61,6.72-7,6.72-15.61S65.73,399.6,62,399.6Zm-.56,29.62c-3,0-5.48-6.27-5.48-14s2.46-14,5.48-14,5.49,6.26,5.49,14S64.49,429.22,61.46,429.22Z"/><path class="cls-1" d="M61.46,415.11c0,3,.78,5.37,1.74,5.37s1.74-2.41,1.74-5.37-.78-5.37-1.74-5.37S61.46,412.14,61.46,415.11Z"/><ellipse class="cls-1" cx="109.33" cy="416" rx="2.39" ry="7.38"/><path class="cls-1" d="M136.53,394.25c-5.61,0-10.16,10.55-10.16,23.57s4.55,23.57,10.16,23.57,10.15-10.55,10.15-23.57S142.13,394.25,136.53,394.25Zm-.84,44.7c-4.56,0-8.27-9.46-8.27-21.13s3.71-21.13,8.27-21.13,8.28,9.46,8.28,21.13S140.26,439,135.69,439Z"/><path class="cls-1" d="M135.69,417.66c0,4.47,1.18,8.1,2.63,8.1s2.62-3.63,2.62-8.1-1.17-8.11-2.62-8.11S135.69,413.18,135.69,417.66Z"/><path class="cls-1" d="M168.44,393.71c-6.4,0-11.58,12-11.58,26.89s5.18,26.9,11.58,26.9S180,435.45,180,420.6,174.84,393.71,168.44,393.71Zm-.94,51c-5.22,0-9.44-10.79-9.44-24.11s4.22-24.11,9.44-24.11,9.44,10.79,9.44,24.11S172.71,444.71,167.5,444.71Z"/><path class="cls-1" d="M167.5,420.42c0,5.1,1.34,9.24,3,9.24s3-4.14,3-9.24-1.35-9.25-3-9.25S167.5,415.31,167.5,420.42Z"/><path class="cls-1" d="M207.25,431c1.89,0,3.42-4.73,3.42-10.56s-1.53-10.57-3.42-10.57-3.42,4.73-3.42,10.57S205.36,431,207.25,431Z"/><path class="cls-1" d="M67.36,394l4.44-.26v-13.6l122.61-5.79-1-5.89L71.8,377.15v-1.48l121.39-10.46-1.48-12.29L71.8,369.39V292.21L53,303.64h0v39.94L66.61,339l-11.4,4.59h6.17v43.51L50.14,388v7l11-.64c-3.5,1.87-6.27,7.69-7.22,15.16-1.21-8.61-4.92-12.06-6-12.9l.4,0v-5.9L5,394.13v4.61l6.21-.32c-3,1.72-5.18,7.57-5.18,14.53,0,8.32,3.13,15.06,7,15.06h3.26s3.64-2.62,4.35-11.84c.54,8,3.72,14.17,7.59,14.17H31.8s3.15-2.26,4.41-9.84c1.06,7.85,4.42,13.59,8.41,13.59h4.07s4-2.91,5.27-12.86c1.21,9,5,15.55,9.6,15.55h4.66s6.43-4.57,6.43-21.56C74.65,400.58,69,395.17,67.36,394Zm-54.9,32.5c-3.14,0-5.69-6-5.69-13.5s2.55-13.49,5.69-13.49,5.69,6,5.69,13.49S15.6,426.45,12.46,426.45Zm3.33-28.26,10.8-.54c-3,1.39-5.31,6.52-5.89,13C20.17,402.44,16.93,399.11,15.79,398.19ZM27.6,428.63c-3.45,0-6.25-6.64-6.25-14.83S24.15,399,27.6,399s6.25,6.64,6.25,14.83S31.05,428.63,27.6,428.63Zm3.45-31.21,11.6-.59c-2.91,1.44-5.26,6-6.26,12C35.32,401.08,32,398.09,31.05,397.42ZM43.9,432.14c-3.94,0-7.14-7.58-7.14-16.92s3.2-16.93,7.14-16.93S51,405.87,51,415.22,47.84,432.14,43.9,432.14ZM54.44,328V305.22l15.24-8.83v25.05Zm8.3,106.58c-4.5,0-8.15-8.66-8.15-19.33s3.65-19.34,8.15-19.34,8.15,8.66,8.15,19.34S67.24,434.55,62.74,434.55Z"/><path class="cls-1" d="M348.4,249.24c1.65,0,3-1.81,3-4.05s-1.34-4.06-3-4.06-3,1.82-3,4.06S346.75,249.24,348.4,249.24Z"/><path class="cls-1" d="M381.58,267.87c1.65,0,3-1.81,3-4.05s-1.34-4.06-3-4.06-3,1.82-3,4.06S379.93,267.87,381.58,267.87Z"/><path class="cls-1" d="M301,301.8c1.66,0,3-1.82,3-4.06s-1.34-4.05-3-4.05-3,1.81-3,4.05S299.37,301.8,301,301.8Z"/><path class="cls-1" d="M315.43,266.48c1.65,0,3-1.82,3-4.06s-1.34-4.05-3-4.05-3,1.81-3,4.05S313.77,266.48,315.43,266.48Z"/><path class="cls-1" d="M332.15,56.91a30.51,30.51,0,0,0-6.21-10.77c-.61-.67-1.29-1.31-2-2,.18.52.41,1.05.57,1.55a39.85,39.85,0,0,1,1.93,11.63v0c0,.44,0,.91,0,1.33,0,.92,0,1.78-.05,2.6s-.18,1.56-.25,2.27-.18,1.5-.29,2.15c0,.15-.07.3-.09.46-.06.32-.12.66-.2.94L325,70.09,324,72.94c-.08.28-.21.6-.32.91l-.15.45c-.24.61-.52,1.27-.85,2s-.57,1.36-1,2.09l-1.27,2.26c-.22.35-.48.74-.71,1.11l0,.06a40.31,40.31,0,0,1-7.58,9,44.77,44.77,0,0,1-9.74,6.5A31.63,31.63,0,0,0,312.26,96a30.54,30.54,0,0,0,10.84-6.1,30.13,30.13,0,0,0,6.2-7.38A22.42,22.42,0,0,0,331,79.33a16.65,16.65,0,0,0,1-2.45l.71-2.1.46-2.16a19.46,19.46,0,0,0,.39-2.62,24.43,24.43,0,0,0,.18-3.58A30.57,30.57,0,0,0,332.15,56.91Z"/><path class="cls-1" d="M326.13,63.6c.06-.71.19-1.46.22-2.27s0-1.68,0-2.59a41,41,0,0,0-2.1-12.91,41.78,41.78,0,0,0-8.4-14.66,43.19,43.19,0,0,0-16.29-11.26,42.28,42.28,0,0,0-21.84-2.25c-.67.1-1.33.25-2,.4A31.55,31.55,0,0,1,277,21.32a31,31,0,0,1,1.46,9.78,23.57,23.57,0,0,1-.23,3.66,17.84,17.84,0,0,1-.44,2.67c-.33,1.44-.5,2.2-.5,2.2l-.69,2.15a18.91,18.91,0,0,1-1,2.52c-.19.47-.42,1-.68,1.48l-.07-.06a15.41,15.41,0,0,0,.68-1.45,17.81,17.81,0,0,0,1-2.5l.72-2.14s.16-.76.47-2.2a17.6,17.6,0,0,0,.39-2.68,22.62,22.62,0,0,0,.19-3.65,31.48,31.48,0,0,0-7.93-20.68A32.26,32.26,0,0,0,258.18,2,31.68,31.68,0,0,0,241.85.43a32.52,32.52,0,0,0-15.66,7.48,31.85,31.85,0,0,0-4.07,4.45,26.84,26.84,0,0,1,6.74,5.75,27.85,27.85,0,0,1,5,9.21,25.3,25.3,0,0,1,1.19,8,20.2,20.2,0,0,1-.2,3,15.42,15.42,0,0,1-.36,2.18l-.41,1.79s-.2.61-.56,1.75c0,.1-.08.21-.11.31a32,32,0,0,1,5.34-3.08,33.43,33.43,0,0,1,8.61-2.4,31.45,31.45,0,0,1,6.42-.17,30.57,30.57,0,0,0-4.54.43,33.54,33.54,0,0,0-16.19,7.75,34.24,34.24,0,0,0-6,7.09,35.74,35.74,0,0,0-3.7,8.56,35.31,35.31,0,0,0-1.19,9.25,34.43,34.43,0,0,0,1.52,9.15,33.58,33.58,0,0,0,10,14.94A33.46,33.46,0,0,0,245,102.06c1.29.39,2.68.71,4,1a33.52,33.52,0,0,0,15.36-1,30.92,30.92,0,0,0,7.11-3.27l.77.27c1.69.5,3.48.9,5.2,1.24a43.17,43.17,0,0,0,19.79-1.37A41.94,41.94,0,0,0,312,90.61a41.08,41.08,0,0,0,8.4-10l1.3-2.24c.38-.71.66-1.42,1-2.06A24.26,24.26,0,0,0,324,72.93l.95-2.84.63-2.93A24.15,24.15,0,0,0,326.13,63.6Z"/><path class="cls-1" d="M234.8,38.28a19.46,19.46,0,0,0,.14-3,25.51,25.51,0,0,0-6.49-16.83,26.38,26.38,0,0,0-10-6.78,25.77,25.77,0,0,0-13.27-1.24,26.46,26.46,0,0,0-12.65,6.1,25.14,25.14,0,0,0-3.72,4.25,38.18,38.18,0,0,1,12.93,9.8,38.94,38.94,0,0,1,7.14,13c.12.36.19.71.3,1.07a32.78,32.78,0,0,1,7.19.13c1.36.22,2.7.47,4.1.84a30.8,30.8,0,0,1,4,1.39,26.75,26.75,0,0,1,3.76,1.85A32,32,0,0,1,231,46.16c.76-.64,1.56-1.23,2.37-1.8l.13-.36.59-1.74.38-1.8A15.82,15.82,0,0,0,234.8,38.28Z"/><path class="cls-1" d="M225.77,88.63a34,34,0,0,1-4.17-8.19,34.82,34.82,0,0,1-1.67-9.2A35.4,35.4,0,0,1,221,61.85a35,35,0,0,1,3.87-8.63,36.54,36.54,0,0,1,2.36-3.16A24.37,24.37,0,0,0,224,48.32a31,31,0,0,0-3.87-1.5,39.85,39.85,0,0,0-3.88-.94,32.24,32.24,0,0,0-14.84,1,31.22,31.22,0,0,0-11,6.21,30.4,30.4,0,0,0-5.77,6.67l-.14,0a30.27,30.27,0,0,1,5.73-6.83,34,34,0,0,1,11.06-6.53,33,33,0,0,1,7.73-1.65c-.11-.33-.17-.66-.29-1A36.06,36.06,0,0,0,201.34,31a37.3,37.3,0,0,0-14.15-9.74,36.67,36.67,0,0,0-18.92-1.91A37.51,37.51,0,0,0,150.09,28a38.86,38.86,0,0,0-6.72,7.95,39.55,39.55,0,0,0-4.18,9.67l0,.1a31.42,31.42,0,0,1,22.69,11.24,33.64,33.64,0,0,1,2.72,3.83l-.39.13a27.5,27.5,0,0,0-2.75-3.6,31.39,31.39,0,0,0-11.89-8.13,30.82,30.82,0,0,0-15.85-1.55,31.53,31.53,0,0,0-15.18,7.27,32.45,32.45,0,0,0-5.6,6.64,31.39,31.39,0,0,0-4.59,16.66,21.78,21.78,0,0,1,2.48-.5,24.24,24.24,0,0,1,12,1.58A23.86,23.86,0,0,0,112,78.64a24.3,24.3,0,0,0-11.71,5.71A26.25,26.25,0,0,0,96,89.49a23.62,23.62,0,0,0-3.54,12.89A26,26,0,0,0,93.49,109a24.39,24.39,0,0,0,2,4.51c.45-.24.89-.51,1.35-.71a21.33,21.33,0,0,1,5.5-1.46,20.44,20.44,0,0,1,10.42,1.53c.5.22,1,.48,1.43.74a14.66,14.66,0,0,0-1.46-.64,17.85,17.85,0,0,0-9.26-.79,18.32,18.32,0,0,0-8.73,4.32,20.08,20.08,0,0,0-3.21,3.85A17.88,17.88,0,0,0,88.92,130a20.06,20.06,0,0,0,.79,4.94A18.23,18.23,0,0,0,95,143.09a17.35,17.35,0,0,0,4,2.6,18.56,18.56,0,0,0,2.19.89c.69.21,1.47.4,2.19.56a18.5,18.5,0,0,0,8.46-.43,17.72,17.72,0,0,0,6.38-3.48,16.9,16.9,0,0,0,3.66-4.32,17.08,17.08,0,0,0,1.57-3.3l.41-1.23h0a20.47,20.47,0,0,0,2.59,1.22,21.2,21.2,0,0,0,11,1,21.58,21.58,0,0,0,10.44-5.11,23.46,23.46,0,0,0,3.84-4.58,21.28,21.28,0,0,0,3.16-11.5,24.08,24.08,0,0,0-1-5.91,21.68,21.68,0,0,0-6.37-9.72,20.58,20.58,0,0,0-4.74-3.08,21.5,21.5,0,0,0-2.61-1c-.47-.14-1-.27-1.45-.39-.1-.3-.17-.6-.27-.91,0-.11-.1-.23-.14-.35.74.13,1.47.26,2.25.46l1.13.35a20.62,20.62,0,0,1,5.44,2.55,24.06,24.06,0,0,1,4.55,4.68,25,25,0,0,1,3.1,6,23.35,23.35,0,0,1,.56,13,35.9,35.9,0,0,0,8.6,4.85,35,35,0,0,0,18.09,1.8,35.81,35.81,0,0,0,17.36-8.28,36.46,36.46,0,0,0,6.41-7.59,35.54,35.54,0,0,0,5.25-19.1,36.91,36.91,0,0,0-1.65-9.8,35.85,35.85,0,0,0-10.69-16c-1-.78-2-1.51-3-2.21a40.73,40.73,0,0,1,4.11,2.79A34.18,34.18,0,0,1,211.3,83.66a37.87,37.87,0,0,1,1.84,10.16,39,39,0,0,1-1.2,10.42c-.38,1.25-.86,2.54-1.39,3.83a31.05,31.05,0,0,0,21.12-7.9A30.54,30.54,0,0,0,234.74,97c-1-.6-1.88-1.24-2.79-1.93A33.52,33.52,0,0,1,225.77,88.63Z"/></g></g></svg>